#Comment line ignore any data following # character 
#Hierarchical Translation and Rotation (.htr) file 
[Header]	
#Header keywords are followed by a single value 
FileType HTR		#Single word string
DataType HTRS		#Translation followed by rotation and scale data
FileVersion 1		#integer
NumSegments 84		#integer
NumFrames 2		#integer
DataFrameRate 30		#integer, data frame rate in this file
EulerRotationOrder ZYX
CalibrationUnits mm
RotationUnits Degrees
GlobalAxisofGravity Y
BoneLengthAxis Y
ScaleFactor 1.00
[SegmentNames&Hierarchy]
#CHILD	PARENT
MASTER GLOBAL
root MASTER
chest root
L_mid_tent01 root
R_mid_tent01 root
spine01 root
Bip01_Neck chest
L_humerus chest
R_humerus chest
weapon_bone chest
Bip01_Head Bip01_Neck
eye_left_bone Bip01_Head
eye_right_bone Bip01_Head
L_forearm L_humerus
L_front_hand L_forearm
L_weapon_bone L_forearm
L_front_hand01_01 L_front_hand
L_front_hand02_01 L_front_hand
L_front_hand03_01 L_front_hand
L_front_hand01_02 L_front_hand01_01
L_front_hand02_02 L_front_hand02_01
L_front_hand03_02 L_front_hand03_01
R_forearm R_humerus
R_front_hand R_forearm
R_weapon_bone R_forearm
R_front_hand01_01 R_front_hand
R_front_hand02_01 R_front_hand
R_front_hand03_01 R_front_hand
R_front_hand01_02 R_front_hand01_01
R_front_hand02_02 R_front_hand02_01
R_front_hand03_02 R_front_hand03_01
null_rope01_connect L_mid_tent01
Rope1_Seg01 null_rope01_connect
Rope1_Seg02 Rope1_Seg01
Rope1_Seg03 Rope1_Seg02
Rope1_Seg04 Rope1_Seg03
Rope1_Seg05 Rope1_Seg04
Rope1_Seg06 Rope1_Seg05
Rope1_Seg07 Rope1_Seg06
Rope1_Seg09 Rope1_Seg07
L_mid_hand01 Rope1_Seg09
L_mid_hand02 Rope1_Seg09
L_mid_hand03 Rope1_Seg09
null_rope02_connect R_mid_tent01
Rope2_Seg01 null_rope02_connect
Rope2_Seg02 Rope2_Seg01
Rope2_Seg03 Rope2_Seg02
Rope2_Seg04 Rope2_Seg03
Rope2_Seg05 Rope2_Seg04
Rope2_Seg06 Rope2_Seg05
Rope2_Seg07 Rope2_Seg06
Rope2_Seg09 Rope2_Seg07
R_mid_hand01 Rope2_Seg09
R_mid_hand02 Rope2_Seg09
R_mid_hand03 Rope2_Seg09
spine02 spine01
spine03 spine02
pelvis spine03
null_rope03_connect pelvis
null_rope04_connect pelvis
Rope3_Seg01 null_rope03_connect
Rope3_Seg02 Rope3_Seg01
Rope3_Seg03 Rope3_Seg02
Rope3_Seg04 Rope3_Seg03
Rope3_Seg05 Rope3_Seg04
Rope3_Seg06 Rope3_Seg05
Rope3_Seg07 Rope3_Seg06
Rope3_Seg08 Rope3_Seg07
Rope3_Seg09 Rope3_Seg08
R_rear_hand01 Rope3_Seg09
R_rear_hand02 Rope3_Seg09
R_rear_hand03 Rope3_Seg09
Rope4_Seg01 null_rope04_connect
Rope4_Seg02 Rope4_Seg01
Rope4_Seg03 Rope4_Seg02
Rope4_Seg04 Rope4_Seg03
Rope4_Seg05 Rope4_Seg04
Rope4_Seg06 Rope4_Seg05
Rope4_Seg07 Rope4_Seg06
Rope4_Seg08 Rope4_Seg07
Rope4_Seg09 Rope4_Seg08
L_rear_hand01 Rope4_Seg09
L_rear_hand02 Rope4_Seg09
L_rear_hand03 Rope4_Seg09
[BasePosition]
#SegmentName Tx, Ty, Tz, Rx, Ry, Rz, BoneLength
MASTER 0.000000 0.000000 0.000000 -90.000000 0.000000 0.000000 10.000000 
root 0.000000 0.000000 0.000000 0.000000 0.000000 0.000000 10.000000 
chest 0.000000 0.000000 0.000000 0.000000 0.000000 0.000000 10.000000 
L_mid_tent01 0.000000 0.000000 0.000000 0.000000 0.000000 0.000000 10.000000 
R_mid_tent01 0.000000 0.000000 0.000000 0.000000 0.000000 0.000000 10.000000 
spine01 0.000000 0.000000 0.000000 0.000000 0.000000 0.000000 10.000000 
Bip01_Neck 0.000000 0.000000 0.000000 0.000000 0.000000 0.000000 10.000000 
L_humerus 0.000000 0.000000 0.000000 0.000000 0.000000 0.000000 10.000000 
R_humerus 0.000000 0.000000 0.000000 0.000000 0.000000 0.000000 10.000000 
weapon_bone 0.000000 0.000000 0.000000 0.000000 0.000000 0.000000 10.000000 
Bip01_Head 0.000000 0.000000 0.000000 0.000000 0.000000 0.000000 10.000000 
eye_left_bone 0.000000 0.000000 0.000000 0.000000 0.000000 0.000000 10.000000 
eye_right_bone 0.000000 0.000000 0.000000 0.000000 0.000000 0.000000 10.000000 
L_forearm 0.000000 0.000000 0.000000 0.000000 0.000000 0.000000 10.000000 
L_front_hand 0.000000 0.000000 0.000000 0.000000 0.000000 0.000000 10.000000 
L_weapon_bone 0.000000 0.000000 0.000000 0.000000 0.000000 0.000000 10.000000 
L_front_hand01_01 0.000000 0.000000 0.000000 0.000000 0.000000 0.000000 10.000000 
L_front_hand02_01 0.000000 0.000000 0.000000 0.000000 0.000000 0.000000 10.000000 
L_front_hand03_01 0.000000 0.000000 0.000000 0.000000 0.000000 0.000000 10.000000 
L_front_hand01_02 0.000000 0.000000 0.000000 0.000000 0.000000 0.000000 10.000000 
L_front_hand02_02 0.000000 0.000000 0.000000 0.000000 0.000000 0.000000 10.000000 
L_front_hand03_02 0.000000 0.000000 0.000000 0.000000 0.000000 0.000000 10.000000 
R_forearm 0.000000 0.000000 0.000000 0.000000 0.000000 0.000000 10.000000 
R_front_hand 0.000000 0.000000 0.000000 0.000000 0.000000 0.000000 10.000000 
R_weapon_bone 0.000000 0.000000 0.000000 0.000000 0.000000 0.000000 10.000000 
R_front_hand01_01 0.000000 0.000000 0.000000 0.000000 0.000000 0.000000 10.000000 
R_front_hand02_01 0.000000 0.000000 0.000000 0.000000 0.000000 0.000000 10.000000 
R_front_hand03_01 0.000000 0.000000 0.000000 0.000000 0.000000 0.000000 10.000000 
R_front_hand01_02 0.000000 0.000000 0.000000 0.000000 0.000000 0.000000 10.000000 
R_front_hand02_02 0.000000 0.000000 0.000000 0.000000 0.000000 0.000000 10.000000 
R_front_hand03_02 0.000000 0.000000 0.000000 0.000000 0.000000 0.000000 10.000000 
null_rope01_connect 0.000000 0.000000 0.000000 0.000000 0.000000 0.000000 10.000000 
Rope1_Seg01 0.000000 0.000000 0.000000 0.000000 0.000000 0.000000 10.000000 
Rope1_Seg02 0.000000 0.000000 0.000000 0.000000 0.000000 0.000000 10.000000 
Rope1_Seg03 0.000000 0.000000 0.000000 0.000000 0.000000 0.000000 10.000000 
Rope1_Seg04 0.000000 0.000000 0.000000 0.000000 0.000000 0.000000 10.000000 
Rope1_Seg05 0.000000 0.000000 0.000000 0.000000 0.000000 0.000000 10.000000 
Rope1_Seg06 0.000000 0.000000 0.000000 0.000000 0.000000 0.000000 10.000000 
Rope1_Seg07 0.000000 0.000000 0.000000 0.000000 0.000000 0.000000 10.000000 
Rope1_Seg09 0.000000 0.000000 0.000000 0.000000 0.000000 0.000000 10.000000 
L_mid_hand01 0.000000 0.000000 0.000000 0.000000 0.000000 0.000000 10.000000 
L_mid_hand02 0.000000 0.000000 0.000000 0.000000 0.000000 0.000000 10.000000 
L_mid_hand03 0.000000 0.000000 0.000000 0.000000 0.000000 0.000000 10.000000 
null_rope02_connect 0.000000 0.000000 0.000000 0.000000 0.000000 0.000000 10.000000 
Rope2_Seg01 0.000000 0.000000 0.000000 0.000000 0.000000 0.000000 10.000000 
Rope2_Seg02 0.000000 0.000000 0.000000 0.000000 0.000000 0.000000 10.000000 
Rope2_Seg03 0.000000 0.000000 0.000000 0.000000 0.000000 0.000000 10.000000 
Rope2_Seg04 0.000000 0.000000 0.000000 0.000000 0.000000 0.000000 10.000000 
Rope2_Seg05 0.000000 0.000000 0.000000 0.000000 0.000000 0.000000 10.000000 
Rope2_Seg06 0.000000 0.000000 0.000000 0.000000 0.000000 0.000000 10.000000 
Rope2_Seg07 0.000000 0.000000 0.000000 0.000000 0.000000 0.000000 10.000000 
Rope2_Seg09 0.000000 0.000000 0.000000 0.000000 0.000000 0.000000 10.000000 
R_mid_hand01 0.000000 0.000000 0.000000 0.000000 0.000000 0.000000 10.000000 
R_mid_hand02 0.000000 0.000000 0.000000 0.000000 0.000000 0.000000 10.000000 
R_mid_hand03 0.000000 0.000000 0.000000 0.000000 0.000000 0.000000 10.000000 
spine02 0.000000 0.000000 0.000000 0.000000 0.000000 0.000000 10.000000 
spine03 0.000000 0.000000 0.000000 0.000000 0.000000 0.000000 10.000000 
pelvis 0.000000 0.000000 0.000000 0.000000 0.000000 0.000000 10.000000 
null_rope03_connect 0.000000 0.000000 0.000000 0.000000 0.000000 0.000000 10.000000 
null_rope04_connect 0.000000 0.000000 0.000000 0.000000 0.000000 0.000000 10.000000 
Rope3_Seg01 0.000000 0.000000 0.000000 0.000000 0.000000 0.000000 10.000000 
Rope3_Seg02 0.000000 0.000000 0.000000 0.000000 0.000000 0.000000 10.000000 
Rope3_Seg03 0.000000 0.000000 0.000000 0.000000 0.000000 0.000000 10.000000 
Rope3_Seg04 0.000000 0.000000 0.000000 0.000000 0.000000 0.000000 10.000000 
Rope3_Seg05 0.000000 0.000000 0.000000 0.000000 0.000000 0.000000 10.000000 
Rope3_Seg06 0.000000 0.000000 0.000000 0.000000 0.000000 0.000000 10.000000 
Rope3_Seg07 0.000000 0.000000 0.000000 0.000000 0.000000 0.000000 10.000000 
Rope3_Seg08 0.000000 0.000000 0.000000 0.000000 0.000000 0.000000 10.000000 
Rope3_Seg09 0.000000 0.000000 0.000000 0.000000 0.000000 0.000000 10.000000 
R_rear_hand01 0.000000 0.000000 0.000000 0.000000 0.000000 0.000000 10.000000 
R_rear_hand02 0.000000 0.000000 0.000000 0.000000 0.000000 0.000000 10.000000 
R_rear_hand03 0.000000 0.000000 0.000000 0.000000 0.000000 0.000000 10.000000 
Rope4_Seg01 0.000000 0.000000 0.000000 0.000000 0.000000 0.000000 10.000000 
Rope4_Seg02 0.000000 0.000000 0.000000 0.000000 0.000000 0.000000 10.000000 
Rope4_Seg03 0.000000 0.000000 0.000000 0.000000 0.000000 0.000000 10.000000 
Rope4_Seg04 0.000000 0.000000 0.000000 0.000000 0.000000 0.000000 10.000000 
Rope4_Seg05 0.000000 0.000000 0.000000 0.000000 0.000000 0.000000 10.000000 
Rope4_Seg06 0.000000 0.000000 0.000000 0.000000 0.000000 0.000000 10.000000 
Rope4_Seg07 0.000000 0.000000 0.000000 0.000000 0.000000 0.000000 10.000000 
Rope4_Seg08 0.000000 0.000000 0.000000 0.000000 0.000000 0.000000 10.000000 
Rope4_Seg09 0.000000 0.000000 0.000000 0.000000 0.000000 0.000000 10.000000 
L_rear_hand01 0.000000 0.000000 0.000000 0.000000 0.000000 0.000000 10.000000 
L_rear_hand02 0.000000 0.000000 0.000000 0.000000 0.000000 0.000000 10.000000 
L_rear_hand03 0.000000 0.000000 0.000000 0.000000 0.000000 0.000000 10.000000 
#Beginning of Data. Separated by tabs
#Fr	Tx	Ty	Tz	Rx	Ry	Rz	SF
[MASTER]
28 0.000000 0.000000 0.000000 0.001660 0.001660 0.001660 0.000000
29 0.000000 0.000000 0.000000 0.001660 0.001660 0.001660 0.000000
[root]
28 -16.502304 9.364140 1448.317383 -91.728889 -11.584497 -89.471619 1448.441650
29 -16.502304 9.364140 1448.317383 -91.728889 -11.584497 -89.471619 1448.441650
[chest]
28 -84.512650 -34.090519 0.000000 -2.144813 0.313244 176.732239 91.129311
29 -84.512650 -34.090519 0.000000 -2.144813 0.313244 176.732239 91.129311
[L_mid_tent01]
28 27.299511 22.177458 -249.918259 -28.266106 32.791584 -5.365355 252.381134
29 27.299511 22.177458 -249.918259 -28.266106 32.791584 -5.365355 252.381134
[R_mid_tent01]
28 23.228794 24.509907 226.238495 -156.204071 -32.814346 0.416457 228.744751
29 23.228794 24.509907 226.238495 -156.204071 -32.814346 0.416457 228.744751
[spine01]
28 -0.361383 -0.195265 0.000000 -0.000001 -0.000007 22.052340 0.410763
29 -0.361383 -0.195265 0.000000 -0.000001 -0.000007 22.052340 0.410763
[Bip01_Neck]
28 165.484543 71.581718 0.000119 175.896118 1.177290 24.871183 180.302734
29 165.484543 71.581718 0.000119 175.896118 1.177290 24.871183 180.302734
[L_humerus]
28 -13.983130 -135.272980 -120.471481 139.909653 88.317627 -130.290085 181.680161
29 -13.983130 -135.272980 -120.471481 139.909836 88.317749 -130.290085 181.680161
[R_humerus]
28 -13.983309 -135.273102 125.287651 133.576981 -87.684464 -45.901276 184.909012
29 -13.983309 -135.273102 125.287651 133.576981 -87.684464 -45.901276 184.909012
[weapon_bone]
28 235.964890 -300.705902 0.000000 0.000000 -89.951546 -128.212341 382.234833
29 235.964890 -300.705902 0.000000 0.000000 -89.951546 -128.212341 382.234833
[Bip01_Head]
28 193.865784 99.525146 7.890730 1.727521 4.534425 -43.429157 218.062973
29 193.865784 99.525146 7.890730 1.727521 4.534425 -43.429157 218.062973
[eye_left_bone]
28 -24.626970 125.451866 -64.772606 0.000000 -90.000000 -99.840431 143.318359
29 -24.626970 125.451866 -64.772606 0.000000 -90.000000 -99.840431 143.318359
[eye_right_bone]
28 -24.626970 125.451866 64.327362 0.000000 -89.965736 80.156380 143.117676
29 -24.626970 125.451866 64.327362 0.000000 -89.965736 80.156380 143.117676
[L_forearm]
28 322.776093 0.000000 -0.000119 0.000248 -0.002334 -102.125252 322.776093
29 322.776093 0.000000 -0.000119 0.000248 -0.002334 -102.125244 322.776093
[L_front_hand]
28 241.149185 -0.042021 -3.300071 -179.659958 -2.242151 -0.019832 241.171753
29 241.149185 -0.042021 -3.300071 -179.659958 -2.242151 -0.019832 241.171753
[L_weapon_bone]
28 156.183838 0.000000 0.000000 0.000014 0.000007 0.000001 156.183838
29 156.183838 0.000000 0.000000 0.000014 0.000007 0.000001 156.183838
[L_front_hand01_01]
28 86.095154 20.947098 -0.655860 -0.366594 -0.477154 75.385574 88.609184
29 86.095154 20.947098 -0.655860 -0.366594 -0.477154 75.385574 88.609184
[L_front_hand02_01]
28 86.935165 -11.437475 24.513514 154.399796 -59.883835 -61.369587 91.046425
29 86.935165 -11.437475 24.513514 154.399796 -59.883835 -61.369587 91.046425
[L_front_hand03_01]
28 86.637497 -14.123976 -20.424902 -153.913849 58.118122 -62.702866 90.126129
29 86.637497 -14.123976 -20.424902 -153.913849 58.118122 -62.702866 90.126129
[L_front_hand01_02]
28 71.020905 -0.000179 0.000030 0.000334 -0.002323 -106.379684 71.020905
29 71.020905 -0.000179 0.000030 0.000334 -0.002323 -106.379684 71.020905
[L_front_hand02_02]
28 71.020927 -0.000119 0.000060 0.000334 -0.002323 -106.379684 71.020927
29 71.020927 -0.000119 0.000060 0.000334 -0.002323 -106.379684 71.020927
[L_front_hand03_02]
28 71.020905 -0.000060 0.000060 0.000334 -0.002323 -106.379684 71.020905
29 71.020905 -0.000060 0.000060 0.000334 -0.002323 -106.379684 71.020905
[R_forearm]
28 322.776428 -0.000060 0.000030 0.208463 0.026596 -98.191154 322.776428
29 322.776428 -0.000060 0.000030 0.208463 0.026596 -98.191154 322.776428
[R_front_hand]
28 238.847015 -0.006795 2.210259 -0.270529 1.703932 2.322530 238.857239
29 238.847015 -0.006795 2.210259 -0.270529 1.703932 2.322530 238.857239
[R_weapon_bone]
28 155.664093 0.002503 -0.000030 0.003487 0.001180 -90.988930 155.664078
29 155.664093 0.002503 -0.000030 0.003487 0.001180 -90.988930 155.664078
[R_front_hand01_01]
28 87.624611 14.231146 22.918642 -154.633499 -59.950619 61.746044 91.683487
29 87.624611 14.231146 22.918642 -154.633514 -59.950634 61.746063 91.683487
[R_front_hand02_01]
28 89.356956 14.367283 -19.491137 154.602661 58.302849 63.744389 92.579636
29 89.356956 14.367283 -19.491137 154.602661 58.302849 63.744389 92.579636
[R_front_hand03_01]
28 87.286232 -22.307278 -0.143439 0.162155 -0.423168 -75.767921 90.091743
29 87.286232 -22.307278 -0.143439 0.162155 -0.423168 -75.767921 90.091743
[R_front_hand01_02]
28 71.020905 0.000060 0.000119 0.002323 -0.000334 106.381714 71.020905
29 71.020905 0.000060 0.000119 0.002323 -0.000334 106.381714 71.020905
[R_front_hand02_02]
28 71.020844 -0.000030 -0.000119 0.002323 -0.000334 106.381714 71.020836
29 71.020844 -0.000030 -0.000119 0.002323 -0.000334 106.381714 71.020836
[R_front_hand03_02]
28 71.020905 0.000000 0.000030 0.002323 -0.000334 106.381714 71.020905
29 71.020905 0.000000 0.000030 0.002323 -0.000334 106.381714 71.020905
[null_rope01_connect]
28 328.732483 0.000000 -0.000238 -119.541275 -47.109665 -141.366821 328.732483
29 328.732483 0.000000 -0.000238 -119.541275 -47.109665 -141.366821 328.732483
[Rope1_Seg01]
28 0.000000 0.000000 0.000000 19.247736 5.016812 -108.306152 0.000000
29 0.000000 0.000000 0.000000 20.501816 8.354292 -110.779594 0.000000
[Rope1_Seg02]
28 139.999863 -0.000179 0.000000 0.674442 -1.648588 1.372005 139.999863
29 139.999863 -0.000179 0.000000 0.763439 -1.629998 1.390636 139.999863
[Rope1_Seg03]
28 139.999924 0.000060 -0.000060 0.235545 -1.936522 1.966455 139.999924
29 139.999924 0.000060 -0.000060 -1.668024 -1.526463 2.769550 139.999924
[Rope1_Seg04]
28 139.999924 -0.000060 -0.000119 -5.264100 -2.524234 7.987813 139.999924
29 139.999924 -0.000060 -0.000119 -2.108978 -2.486541 4.407389 139.999924
[Rope1_Seg05]
28 139.999832 0.000119 -0.000060 11.639502 -2.040351 -8.267737 139.999832
29 139.999832 0.000119 -0.000060 19.083218 -4.949769 -8.602174 139.999832
[Rope1_Seg06]
28 139.999954 0.000119 -0.000060 19.275679 -2.261591 -11.276530 139.999954
29 139.999954 0.000119 -0.000060 7.396398 -2.653400 -2.643770 139.999954
[Rope1_Seg07]
28 139.999985 0.000060 0.000000 8.065514 -2.206725 -3.149411 139.999985
29 139.999985 0.000060 0.000000 2.984111 -1.332765 -0.814801 139.999985
[Rope1_Seg09]
28 121.602913 0.000119 -0.000089 -89.793175 -1.359789 0.847147 121.602913
29 121.602913 0.000119 -0.000089 -89.793175 -1.359789 0.847147 121.602913
[L_mid_hand01]
28 103.859421 1.038730 8.195221 106.855484 -31.239275 -9.461397 104.187431
29 103.859421 1.038730 8.195221 106.855484 -31.239275 -9.461397 104.187431
[L_mid_hand02]
28 105.572853 -4.139662 -10.864139 -142.331345 25.752670 -28.774628 106.211075
29 105.572853 -4.139662 -10.864139 -142.331345 25.752670 -28.774628 106.211075
[L_mid_hand03]
28 104.641464 17.579376 -3.913581 -16.122810 9.734291 34.223598 106.179977
29 104.641464 17.579376 -3.913581 -16.122810 9.734291 34.223598 106.179977
[null_rope02_connect]
28 328.732849 0.000179 -0.000119 -116.029831 50.874489 -29.531246 328.732849
29 328.732849 0.000179 -0.000119 -116.029831 50.874489 -29.531246 328.732849
[Rope2_Seg01]
28 -0.000038 0.000153 0.000000 82.188202 5.034196 -67.109154 0.000157
29 -0.000038 0.000153 0.000000 90.426537 9.896060 -66.493675 0.000157
[Rope2_Seg02]
28 139.999741 -0.000060 -0.000119 -8.468778 2.014929 3.999931 139.999756
29 139.999741 -0.000060 -0.000119 -11.072205 1.940925 4.918960 139.999756
[Rope2_Seg03]
28 140.000107 0.000030 0.000000 -9.776313 0.992225 5.592891 140.000107
29 140.000107 0.000030 0.000000 -10.167040 0.621842 5.514615 140.000107
[Rope2_Seg04]
28 139.999802 0.000000 -0.000060 -2.233622 0.524082 1.168742 139.999802
29 139.999802 0.000000 -0.000060 2.390361 0.728493 -1.640391 139.999802
[Rope2_Seg05]
28 139.999985 -0.000060 0.000119 9.120403 1.451782 -5.720078 139.999985
29 139.999985 -0.000060 0.000119 4.148901 0.433764 -2.363239 139.999985
[Rope2_Seg06]
28 139.999893 -0.000030 -0.000119 6.706484 0.275315 -3.569587 139.999893
29 139.999893 -0.000030 -0.000119 1.000203 0.100704 -0.581075 139.999893
[Rope2_Seg07]
28 139.999893 0.000060 -0.000060 2.865794 -0.006768 -1.443127 139.999893
29 139.999893 0.000060 -0.000060 0.575193 0.057765 -0.339303 139.999893
[Rope2_Seg09]
28 121.338966 0.000089 -0.000060 33.793236 -1.359788 -0.847141 121.338966
29 121.338966 0.000089 -0.000060 33.793236 -1.359788 -0.847141 121.338966
[R_mid_hand01]
28 104.680779 11.144459 -10.335981 -41.523792 25.424656 28.595957 105.778534
29 104.680779 11.144459 -10.335981 -41.523792 25.424656 28.595957 105.778534
[R_mid_hand02]
28 104.070427 2.443552 8.231699 72.847389 -32.746803 10.013901 104.424065
29 104.070427 2.443552 8.231699 72.847389 -32.746803 10.013901 104.424065
[R_mid_hand03]
28 106.028137 -11.221827 -5.996406 -167.901306 10.259192 -37.009720 106.788818
29 106.028137 -11.221827 -5.996406 -167.901306 10.259192 -37.009720 106.788818
[spine02]
28 129.756927 0.001550 0.000119 0.360061 -4.044797 -12.915058 129.756927
29 129.756927 0.001550 0.000119 0.360061 -4.044797 -12.915058 129.756927
[spine03]
28 78.613846 0.087372 -4.898873 1.896495 3.831288 16.473045 78.766380
29 78.613846 0.087372 -4.898873 1.896495 3.831288 16.473045 78.766380
[pelvis]
28 169.435242 0.051022 0.000000 -0.060465 -0.180225 14.087930 169.435257
29 169.435242 0.051022 0.000000 -0.060465 -0.180225 14.087930 169.435257
[null_rope03_connect]
28 -1.257226 -2.466202 137.391083 156.330536 -89.381973 -94.431389 137.418976
29 -1.257226 -2.466202 137.391083 156.329987 -89.381348 -94.430771 137.418976
[null_rope04_connect]
28 -1.259640 -2.480268 -137.844437 156.330536 -89.381973 -94.431389 137.872513
29 -1.259640 -2.480268 -137.844437 156.329987 -89.381348 -94.430771 137.872513
[Rope3_Seg01]
28 0.000010 0.000038 -0.000114 -129.404358 28.026243 -70.972038 0.000121
29 0.000010 0.000038 -0.000114 -130.128326 38.290012 -71.229843 0.000121
[Rope3_Seg02]
28 139.999924 -0.000119 0.000060 0.413981 6.110240 0.672536 139.999924
29 139.999924 -0.000119 0.000060 0.993583 9.893614 -2.364918 139.999924
[Rope3_Seg03]
28 139.999924 -0.000119 0.000119 0.903138 7.226422 0.777229 139.999924
29 139.999924 -0.000119 0.000119 1.824247 11.499456 -2.787817 139.999924
[Rope3_Seg04]
28 139.999924 0.000119 0.000000 4.059892 16.220304 4.545148 139.999924
29 139.999924 0.000119 0.000000 5.019565 20.191105 -2.760137 139.999924
[Rope3_Seg05]
28 139.999924 -0.000238 0.000060 1.383747 2.149987 -2.549945 139.999924
29 139.999924 -0.000238 0.000060 0.859566 0.260690 -3.523325 139.999924
[Rope3_Seg06]
28 139.999893 -0.000119 -0.000060 -0.680766 -15.839772 -7.854423 139.999893
29 139.999893 -0.000119 -0.000060 -2.082973 -16.212019 -1.535350 139.999893
[Rope3_Seg07]
28 139.999771 0.000060 -0.000119 0.557143 -6.783153 -3.767621 139.999771
29 139.999771 0.000060 -0.000119 0.171566 -8.129499 -1.344292 139.999771
[Rope3_Seg08]
28 139.999985 -0.000060 0.000000 0.628899 -2.848041 -1.745578 139.999985
29 139.999985 -0.000060 0.000000 0.560592 -3.422327 -0.821604 139.999985
[Rope3_Seg09]
28 90.185997 -0.000179 -0.000060 89.793228 -1.359877 -0.847183 90.185997
29 90.185997 -0.000179 -0.000060 89.793228 -1.359877 -0.847183 90.185997
[R_rear_hand01]
28 103.366196 -6.073594 -10.757982 -161.551193 16.666374 -30.088671 104.101845
29 103.366196 -6.073594 -10.757982 -161.551193 16.666374 -30.088671 104.101845
[R_rear_hand02]
28 100.509819 12.039542 -7.992327 -34.280552 19.289745 28.875523 101.543350
29 100.509819 12.039542 -7.992327 -34.280552 19.289745 28.875523 101.543350
[R_rear_hand03]
28 101.539970 5.215704 5.435467 83.366440 -30.933914 7.284830 101.819031
29 101.539970 5.215704 5.435467 83.366440 -30.933914 7.284830 101.819031
[Rope4_Seg01]
28 0.000010 0.000038 -0.000114 60.266933 29.542559 -76.771973 0.000121
29 0.000010 0.000038 -0.000114 64.218391 33.949379 -74.262718 0.000121
[Rope4_Seg02]
28 139.999985 0.000060 0.000119 -1.521110 -11.348502 -1.432831 139.999985
29 139.999985 0.000060 0.000119 -1.291387 -13.813580 -2.901308 139.999985
[Rope4_Seg03]
28 139.999924 0.000000 -0.000238 -0.615543 -13.809987 -2.185736 139.999924
29 139.999924 0.000000 -0.000238 0.101968 -17.489872 -4.588758 139.999924
[Rope4_Seg04]
28 139.999985 0.000000 0.000119 2.258781 -23.944588 -7.789112 139.999985
29 139.999985 0.000000 0.000119 3.226329 -25.567602 -11.369309 139.999985
[Rope4_Seg05]
28 139.999802 -0.000060 -0.000119 1.715960 -9.379009 -0.873591 139.999802
29 139.999802 -0.000060 -0.000119 1.982500 -5.019452 1.345677 139.999802
[Rope4_Seg06]
28 139.999924 0.000000 0.000060 2.376712 14.340937 10.690305 139.999924
29 139.999924 0.000000 0.000060 4.509364 16.554123 15.801694 139.999924
[Rope4_Seg07]
28 139.999802 0.000000 0.000000 2.417143 20.066452 13.195611 139.999802
29 139.999802 0.000000 0.000000 2.082475 16.500725 14.414293 139.999802
[Rope4_Seg08]
28 139.999924 0.000000 0.000119 -1.612196 7.487565 5.514423 139.999924
29 139.999924 0.000000 0.000119 -1.923391 6.622982 6.429107 139.999924
[Rope4_Seg09]
28 90.185791 0.000060 0.000060 -135.617828 2.228885 0.850567 90.185791
29 90.185791 0.000060 0.000060 -135.617828 2.228885 0.850567 90.185791
[L_rear_hand01]
28 101.696655 -8.392275 -7.654577 -34.454281 -18.946800 151.655121 102.329041
29 101.696655 -8.392275 -7.654577 -34.454281 -18.946800 151.655121 102.329041
[L_rear_hand02]
28 102.726799 -1.568258 5.773216 83.407906 30.330435 172.796509 102.900848
29 102.726799 -1.568258 5.773216 83.407906 30.330435 172.796509 102.900848
[L_rear_hand03]
28 104.552910 9.721220 -10.420293 -161.379868 -16.473232 -150.512238 105.519653
29 104.552910 9.721220 -10.420293 -161.379868 -16.473232 -150.512238 105.519653
